<svg id="visual" viewBox="0 0 960 540" width="960" height="540" xmlns="http://www.w3.org/2000/svg" xmlns:xlink="http://www.w3.org/1999/xlink" version="1.1"><rect x="0" y="0" width="960" height="540" fill="#ffffff"></rect><path d="M0 193L20 203.5C40 214 80 235 120 227.8C160 220.7 200 185.3 240 175.3C280 165.3 320 180.7 360 185.3C400 190 440 184 480 194C520 204 560 230 600 224.7C640 219.3 680 182.7 720 163.3C760 144 800 142 840 140.8C880 139.7 920 139.3 940 139.2L960 139L960 541L940 541C920 541 880 541 840 541C800 541 760 541 720 541C680 541 640 541 600 541C560 541 520 541 480 541C440 541 400 541 360 541C320 541 280 541 240 541C200 541 160 541 120 541C80 541 40 541 20 541L0 541Z" fill="#9fff36"></path><path d="M0 228L20 223.7C40 219.3 80 210.7 120 221.7C160 232.7 200 263.3 240 279.5C280 295.7 320 297.3 360 292.2C400 287 440 275 480 263.2C520 251.3 560 239.7 600 235C640 230.3 680 232.7 720 238.8C760 245 800 255 840 269.5C880 284 920 303 940 312.5L960 322L960 541L940 541C920 541 880 541 840 541C800 541 760 541 720 541C680 541 640 541 600 541C560 541 520 541 480 541C440 541 400 541 360 541C320 541 280 541 240 541C200 541 160 541 120 541C80 541 40 541 20 541L0 541Z" fill="#57be1d"></path><path d="M0 290L20 305.3C40 320.7 80 351.3 120 349.8C160 348.3 200 314.7 240 300C280 285.3 320 289.7 360 305.2C400 320.7 440 347.3 480 351.3C520 355.3 560 336.7 600 320.2C640 303.7 680 289.3 720 289.5C760 289.7 800 304.3 840 306.8C880 309.3 920 299.7 940 294.8L960 290L960 541L940 541C920 541 880 541 840 541C800 541 760 541 720 541C680 541 640 541 600 541C560 541 520 541 480 541C440 541 400 541 360 541C320 541 280 541 240 541C200 541 160 541 120 541C80 541 40 541 20 541L0 541Z" fill="#008000"></path><path d="M0 382L20 389C40 396 80 410 120 416.3C160 422.7 200 421.3 240 410.3C280 399.3 320 378.7 360 371.2C400 363.7 440 369.3 480 372.3C520 375.3 560 375.7 600 384.5C640 393.3 680 410.7 720 410.7C760 410.7 800 393.3 840 394.8C880 396.3 920 416.7 940 426.8L960 437L960 541L940 541C920 541 880 541 840 541C800 541 760 541 720 541C680 541 640 541 600 541C560 541 520 541 480 541C440 541 400 541 360 541C320 541 280 541 240 541C200 541 160 541 120 541C80 541 40 541 20 541L0 541Z" fill="#004500"></path><path d="M0 444L20 452.3C40 460.7 80 477.3 120 473.7C160 470 200 446 240 439.8C280 433.7 320 445.3 360 448.3C400 451.3 440 445.7 480 451.5C520 457.3 560 474.7 600 479.7C640 484.7 680 477.3 720 475.8C760 474.3 800 478.7 840 483.2C880 487.7 920 492.3 940 494.7L960 497L960 541L940 541C920 541 880 541 840 541C800 541 760 541 720 541C680 541 640 541 600 541C560 541 520 541 480 541C440 541 400 541 360 541C320 541 280 541 240 541C200 541 160 541 120 541C80 541 40 541 20 541L0 541Z" fill="#000000"></path></svg>