<svg id="visual" viewBox="0 0 960 540" width="960" height="540" xmlns="http://www.w3.org/2000/svg" xmlns:xlink="http://www.w3.org/1999/xlink" version="1.1"><path d="M0 82L14.5 100C29 118 58 154 87.2 164.8C116.3 175.7 145.7 161.3 174.8 145.2C204 129 233 111 262 123.5C291 136 320 179 349 189.8C378 200.7 407 179.3 436.2 173.2C465.3 167 494.7 176 523.8 176C553 176 582 167 611 149C640 131 669 104 698 105.7C727 107.3 756 137.7 785.2 139.3C814.3 141 843.7 114 872.8 102.3C902 90.7 931 94.3 945.5 96.2L960 98L960 0L945.5 0C931 0 902 0 872.8 0C843.7 0 814.3 0 785.2 0C756 0 727 0 698 0C669 0 640 0 611 0C582 0 553 0 523.8 0C494.7 0 465.3 0 436.2 0C407 0 378 0 349 0C320 0 291 0 262 0C233 0 204 0 174.8 0C145.7 0 116.3 0 87.2 0C58 0 29 0 14.5 0L0 0Z" fill="#9fff36"></path><path d="M0 244L14.5 262.8C29 281.7 58 319.3 87.2 323C116.3 326.7 145.7 296.3 174.8 282C204 267.7 233 269.3 262 281C291 292.7 320 314.3 349 335C378 355.7 407 375.3 436.2 369.8C465.3 364.3 494.7 333.7 523.8 318.3C553 303 582 303 611 295.8C640 288.7 669 274.3 698 278.8C727 283.3 756 306.7 785.2 315.7C814.3 324.7 843.7 319.3 872.8 309.5C902 299.7 931 285.3 945.5 278.2L960 271L960 96L945.5 94.2C931 92.3 902 88.7 872.8 100.3C843.7 112 814.3 139 785.2 137.3C756 135.7 727 105.3 698 103.7C669 102 640 129 611 147C582 165 553 174 523.8 174C494.7 174 465.3 165 436.2 171.2C407 177.3 378 198.7 349 187.8C320 177 291 134 262 121.5C233 109 204 127 174.8 143.2C145.7 159.3 116.3 173.7 87.2 162.8C58 152 29 116 14.5 98L0 80Z" fill="#57be1d"></path><path d="M0 293L14.5 314.5C29 336 58 379 87.2 381.7C116.3 384.3 145.7 346.7 174.8 335C204 323.3 233 337.7 262 356.5C291 375.3 320 398.7 349 411.3C378 424 407 426 436.2 415.2C465.3 404.3 494.7 380.7 523.8 370.7C553 360.7 582 364.3 611 358.2C640 352 669 336 698 336C727 336 756 352 785.2 364.5C814.3 377 843.7 386 872.8 383.3C902 380.7 931 366.3 945.5 359.2L960 352L960 269L945.5 276.2C931 283.3 902 297.7 872.8 307.5C843.7 317.3 814.3 322.7 785.2 313.7C756 304.7 727 281.3 698 276.8C669 272.3 640 286.7 611 293.8C582 301 553 301 523.8 316.3C494.7 331.7 465.3 362.3 436.2 367.8C407 373.3 378 353.7 349 333C320 312.3 291 290.7 262 279C233 267.3 204 265.7 174.8 280C145.7 294.3 116.3 324.7 87.2 321C58 317.3 29 279.7 14.5 260.8L0 242Z" fill="#008000"></path><path d="M0 406L14.5 416.8C29 427.7 58 449.3 87.2 453C116.3 456.7 145.7 442.3 174.8 436.8C204 431.3 233 434.7 262 440C291 445.3 320 452.7 349 458.2C378 463.7 407 467.3 436.2 458.3C465.3 449.3 494.7 427.7 523.8 418.7C553 409.7 582 413.3 611 417C640 420.7 669 424.3 698 423.3C727 422.3 756 416.7 785.2 424.7C814.3 432.7 843.7 454.3 872.8 461.7C902 469 931 462 945.5 458.5L960 455L960 350L945.5 357.2C931 364.3 902 378.7 872.8 381.3C843.7 384 814.3 375 785.2 362.5C756 350 727 334 698 334C669 334 640 350 611 356.2C582 362.3 553 358.7 523.8 368.7C494.7 378.7 465.3 402.3 436.2 413.2C407 424 378 422 349 409.3C320 396.7 291 373.3 262 354.5C233 335.7 204 321.3 174.8 333C145.7 344.7 116.3 382.3 87.2 379.7C58 377 29 334 14.5 312.5L0 291Z" fill="#004500"></path><path d="M0 541L14.5 541C29 541 58 541 87.2 541C116.3 541 145.7 541 174.8 541C204 541 233 541 262 541C291 541 320 541 349 541C378 541 407 541 436.2 541C465.3 541 494.7 541 523.8 541C553 541 582 541 611 541C640 541 669 541 698 541C727 541 756 541 785.2 541C814.3 541 843.7 541 872.8 541C902 541 931 541 945.5 541L960 541L960 453L945.5 456.5C931 460 902 467 872.8 459.7C843.7 452.3 814.3 430.7 785.2 422.7C756 414.7 727 420.3 698 421.3C669 422.3 640 418.7 611 415C582 411.3 553 407.7 523.8 416.7C494.7 425.7 465.3 447.3 436.2 456.3C407 465.3 378 461.7 349 456.2C320 450.7 291 443.3 262 438C233 432.7 204 429.3 174.8 434.8C145.7 440.3 116.3 454.7 87.2 451C58 447.3 29 425.7 14.5 414.8L0 404Z" fill="#000000"></path></svg>