<svg id="visual" viewBox="0 0 960 540" width="960" height="540" xmlns="http://www.w3.org/2000/svg" xmlns:xlink="http://www.w3.org/1999/xlink" version="1.1"><rect x="0" y="0" width="960" height="540" fill="#ffffff"></rect><path d="M0 154L20 165.8C40 177.7 80 201.3 120 193.5C160 185.7 200 146.3 240 135.2C280 124 320 141 360 146.2C400 151.3 440 144.7 480 155.7C520 166.7 560 195.3 600 189.3C640 183.3 680 142.7 720 121.3C760 100 800 98 840 96.8C880 95.7 920 95.3 940 95.2L960 95L960 541L940 541C920 541 880 541 840 541C800 541 760 541 720 541C680 541 640 541 600 541C560 541 520 541 480 541C440 541 400 541 360 541C320 541 280 541 240 541C200 541 160 541 120 541C80 541 40 541 20 541L0 541Z" fill="#9fff36"></path><path d="M0 193L20 188.3C40 183.7 80 174.3 120 186.7C160 199 200 233 240 251C280 269 320 271 360 265.2C400 259.3 440 245.7 480 232.3C520 219 560 206 600 200.8C640 195.7 680 198.3 720 205.3C760 212.3 800 223.7 840 239.8C880 256 920 277 940 287.5L960 298L960 541L940 541C920 541 880 541 840 541C800 541 760 541 720 541C680 541 640 541 600 541C560 541 520 541 480 541C440 541 400 541 360 541C320 541 280 541 240 541C200 541 160 541 120 541C80 541 40 541 20 541L0 541Z" fill="#57be1d"></path><path d="M0 262L20 279.2C40 296.3 80 330.7 120 329C160 327.3 200 289.7 240 273.3C280 257 320 262 360 279.3C400 296.7 440 326.3 480 330.8C520 335.3 560 314.7 600 296.3C640 278 680 262 720 262.2C760 262.3 800 278.7 840 281.3C880 284 920 273 940 267.5L960 262L960 541L940 541C920 541 880 541 840 541C800 541 760 541 720 541C680 541 640 541 600 541C560 541 520 541 480 541C440 541 400 541 360 541C320 541 280 541 240 541C200 541 160 541 120 541C80 541 40 541 20 541L0 541Z" fill="#008000"></path><path d="M0 365L20 372.7C40 380.3 80 395.7 120 402.5C160 409.3 200 407.7 240 395.3C280 383 320 360 360 351.8C400 343.7 440 350.3 480 353.8C520 357.3 560 357.7 600 367.3C640 377 680 396 720 396C760 396 800 377 840 378.8C880 380.7 920 403.3 940 414.7L960 426L960 541L940 541C920 541 880 541 840 541C800 541 760 541 720 541C680 541 640 541 600 541C560 541 520 541 480 541C440 541 400 541 360 541C320 541 280 541 240 541C200 541 160 541 120 541C80 541 40 541 20 541L0 541Z" fill="#004500"></path><path d="M0 433L20 442.3C40 451.7 80 470.3 120 466.3C160 462.3 200 435.7 240 428.8C280 422 320 435 360 438.3C400 441.7 440 435.3 480 441.7C520 448 560 467 600 472.7C640 478.3 680 470.7 720 469.2C760 467.7 800 472.3 840 477.3C880 482.3 920 487.7 940 490.3L960 493L960 541L940 541C920 541 880 541 840 541C800 541 760 541 720 541C680 541 640 541 600 541C560 541 520 541 480 541C440 541 400 541 360 541C320 541 280 541 240 541C200 541 160 541 120 541C80 541 40 541 20 541L0 541Z" fill="#000000"></path></svg>